<svg viewBox="0 0 53 27" fill="none" xmlns="http://www.w3.org/2000/svg">
<path d="M39.1761 18.0602C38.6784 17.6634 38.1053 17.4583 37.4723 17.4192C37.0642 17.3942 36.6593 17.44 36.2618 17.5352C35.7301 17.6622 35.2262 17.8483 34.8176 18.2274C34.5975 18.4313 34.4269 18.67 34.3898 18.9691C34.3347 19.4171 34.5567 19.7553 34.8899 20.0251C35.063 20.1655 35.2571 20.2827 35.4525 20.392C35.5595 20.4518 35.6893 20.4732 35.8086 20.5122C35.821 20.4921 35.834 20.4726 35.8463 20.4524C35.722 20.32 35.5972 20.1887 35.4741 20.055C35.306 19.8719 35.1242 19.6979 34.9765 19.5001C34.8064 19.2731 34.833 19.1003 35.0346 18.9007C35.1069 18.8293 35.1897 18.7652 35.2757 18.7109C35.8067 18.3764 36.386 18.2433 37.016 18.2878C37.4494 18.3184 37.85 18.4289 38.2265 18.6401C38.4682 18.7756 38.6253 18.9477 38.6018 19.2499C38.5783 19.5526 38.5053 19.8389 38.3743 20.1094C38.0324 20.8132 37.4902 21.3455 36.8571 21.7941C36.2778 22.2049 35.6374 22.5022 34.9771 22.7623C34.1703 23.0803 33.3412 23.3178 32.4819 23.4441C31.9181 23.5271 31.3512 23.5985 30.7836 23.6498C30.1734 23.7054 29.5601 23.7585 28.9481 23.7621C28.3002 23.7664 27.6523 23.7158 27.0044 23.6797C26.6674 23.6608 26.3305 23.6327 25.9967 23.5894C25.5478 23.532 25.1002 23.4649 24.6545 23.3867C24.1284 23.2939 23.6029 23.1969 23.0817 23.0803C21.946 22.8264 20.8455 22.4528 19.7507 22.067C18.4975 21.6257 17.2573 21.1489 16.0598 20.5751C15.138 20.1332 14.2286 19.665 13.318 19.1998C12.4425 18.7536 11.6221 18.2237 10.8605 17.6048C10.3047 17.1531 9.75509 16.6922 9.17581 16.2716C8.56994 15.8321 7.89978 15.5104 7.13379 15.4121C7.12142 15.3236 7.10226 15.2333 7.09979 15.1435C7.09917 15.1112 7.13317 15.055 7.16037 15.0483C7.64259 14.9354 8.12481 14.8231 8.60951 14.7242C8.78385 14.6888 8.9687 14.6808 9.03732 14.4843C9.13871 14.1949 9.24876 13.9062 9.31614 13.6089C9.4874 12.8514 9.61722 12.0847 9.80022 11.3302C10.0506 10.298 10.3436 9.27489 10.8073 8.31286C11.4163 7.05111 12.2608 5.96455 13.3711 5.08676C14.241 4.39881 15.2116 3.8891 16.2546 3.51552C17.1009 3.21214 17.9751 3.03755 18.8814 3.06991C19.1361 3.07906 19.3921 3.09494 19.6443 3.12973C20.1822 3.2042 20.6947 3.36047 21.1336 3.68705C21.3241 3.82867 21.4867 4.00752 21.5738 4.2401C21.7339 4.66984 21.7241 5.09958 21.5849 5.52993C21.3871 6.14279 20.9123 6.5414 20.4449 6.94245C20.3077 7.06027 20.1494 7.15427 20.0078 7.2672C19.9769 7.29162 19.9485 7.36304 19.9627 7.3899C19.9831 7.42835 20.0437 7.46681 20.0876 7.46803C20.1748 7.47047 20.2694 7.46376 20.3497 7.43263C20.6199 7.32946 20.8901 7.22325 21.1522 7.10177C21.5856 6.90155 22.0134 6.67753 22.3089 6.29601C22.7448 5.7332 22.9859 5.08004 23.0458 4.37744C23.0971 3.778 23.0434 3.17917 22.814 2.61026C22.5939 2.0627 22.312 1.56032 21.7661 1.25999C21.6171 1.1782 21.4551 1.11959 21.308 1.03597C20.6465 0.658723 19.9151 0.558613 19.1689 0.52626C18.9439 0.516493 18.7164 0.533585 18.4913 0.55434C18.1272 0.588524 17.7612 0.617824 17.402 0.68314C16.9971 0.756391 16.5995 0.86932 16.1977 0.960273C15.0119 1.23008 13.9183 1.71598 12.8908 2.3496C11.9276 2.94355 11.1072 3.69804 10.416 4.58621C9.70749 5.49635 9.14242 6.48402 8.77952 7.58035C8.55572 8.25731 8.37149 8.94282 8.28432 9.65031C8.23053 10.0855 8.15387 10.5208 8.14398 10.9578C8.13161 11.52 8.15263 12.0853 8.20271 12.6457C8.24166 13.0888 8.34243 13.5271 8.42342 13.966C8.44197 14.0649 8.41538 14.1003 8.32017 14.1089C8.199 14.1198 8.07721 14.1327 7.95727 14.154C7.62714 14.2126 7.29824 14.2755 6.95079 14.3402C6.91988 14.1846 6.89391 14.0295 6.85744 13.8763C6.50814 12.4149 6.14647 10.956 5.81015 9.49159C5.62469 8.68217 5.4794 7.8642 5.32299 7.04867C5.31248 6.99251 5.33597 6.90339 5.37739 6.8692C5.77739 6.53408 6.13225 6.15989 6.41231 5.7216C6.86795 5.00862 7.18943 4.26146 7.07258 3.38428C6.99716 2.81963 6.57985 2.51442 6.05065 2.4662C5.78233 2.44178 5.50166 2.52419 5.23025 2.57546C4.61264 2.69205 4.15268 3.03694 3.838 3.56679C3.23831 4.57583 2.96134 5.65812 3.09365 6.83075C3.10786 6.95893 3.11157 7.08773 3.12023 7.2147C2.40803 7.35876 1.31685 7.07614 1.04977 6.0671C0.999077 6.27098 0.974966 6.44312 1.0405 6.62198C1.26986 7.25133 1.74961 7.59622 2.38082 7.74761C2.64357 7.81048 2.92239 7.80926 3.20925 7.83917C3.2278 7.92646 3.24882 8.0339 3.27231 8.14072C3.47571 9.05819 3.67293 9.97688 3.88374 10.8931C4.18791 12.2159 4.50321 13.5363 4.80862 14.8591C4.81666 14.8926 4.77647 14.961 4.74185 14.9763C4.56504 15.0556 4.3808 15.1167 4.20337 15.1948C3.42873 15.5373 2.68623 15.9334 2.05316 16.5005C1.43802 17.0517 0.95951 17.7012 0.673887 18.4783C0.479762 19.0075 0.400011 19.5453 0.500782 20.1106C0.6133 20.7411 0.953328 21.2631 1.26492 21.8002C1.47141 22.1561 1.79474 22.4033 2.10509 22.664C2.75547 23.2097 3.48684 23.3873 4.28683 23.0852C4.94772 22.8349 5.45653 22.3698 5.85529 21.7947C6.26455 21.2051 6.56749 20.5617 6.80303 19.8865C7.03054 19.2334 7.19252 18.5631 7.23889 17.8752C7.27413 17.3521 7.24692 16.8253 7.24445 16.2997C7.24445 16.2344 7.22714 16.1697 7.21849 16.1043L7.26238 16.083C7.59375 16.3455 7.95109 16.5829 8.25155 16.8765C8.77272 17.3856 9.26792 17.9216 9.75694 18.4612C10.1792 18.9276 10.552 19.4397 10.994 19.8865C11.4775 20.3749 12.0048 20.8236 12.534 21.2649C12.8765 21.5506 13.2314 21.8387 13.6246 22.0444C14.602 22.5566 15.5906 23.0528 16.6008 23.4984C18.1865 24.198 19.8211 24.7742 21.4823 25.2766C22.4251 25.5617 23.3852 25.7747 24.3571 25.931C24.9834 26.0317 25.6152 26.1056 26.247 26.1678C26.8189 26.224 27.3932 26.2625 27.967 26.2838C28.4652 26.3021 28.966 26.3034 29.4637 26.2795C30.0071 26.2533 30.5499 26.1977 31.0915 26.1391C31.4649 26.0989 31.8439 26.0641 32.2049 25.9694C32.9128 25.7833 33.6225 25.5922 34.3075 25.3389C35.5112 24.8939 36.6686 24.3512 37.6738 23.5363C38.3131 23.0186 38.8317 22.4094 39.1984 21.6751C39.5532 20.9652 39.8345 20.2388 39.816 19.4269C39.8036 18.8757 39.6175 18.413 39.1761 18.0608V18.0602ZM5.0454 17.7079C4.99656 18.3074 4.88466 18.8995 4.60337 19.4428C4.34371 19.9427 3.97957 20.3572 3.49673 20.6606C3.21605 20.837 2.98607 20.8113 2.72209 20.6087C2.25656 20.2516 1.98206 19.7919 1.90231 19.2114C1.83183 18.6974 1.99381 18.2567 2.28623 17.8459C2.77773 17.1555 3.41822 16.6324 4.15515 16.2185C4.41357 16.0732 4.68065 15.9438 4.96194 15.7979C4.99347 16.0506 5.03922 16.2826 5.04726 16.5164C5.06086 16.9132 5.07693 17.3136 5.04478 17.7085L5.0454 17.7079ZM5.16905 5.01045C5.13937 4.36584 5.65003 3.90009 6.14214 3.79204C6.21448 3.77617 6.29361 3.7896 6.36656 3.7896C6.5001 4.48976 5.92391 5.4817 5.21727 6.12875C5.19996 5.73259 5.18574 5.37122 5.16905 5.01045ZM25.4099 13.7261C25.4359 13.7719 25.5552 13.7939 25.6251 13.7829C25.8402 13.7499 26.0541 13.7041 26.2643 13.648C26.6235 13.5522 26.9803 13.4447 27.3419 13.3409C27.3574 13.6285 27.366 13.9044 27.3883 14.1791C27.4334 14.7523 27.4755 15.3261 27.5373 15.8974C27.6053 16.5286 27.7976 17.1177 28.1184 17.6774C28.3669 18.1108 28.6241 18.518 29.0451 18.8085C29.2047 18.9184 29.3592 18.9715 29.5527 18.916C29.9292 18.8073 30.2111 18.5607 30.4349 18.2683C30.7577 17.8477 31.0563 17.407 31.3345 16.9559C31.9243 15.9987 32.4046 14.9848 32.8745 13.966C32.9202 13.8665 32.9691 13.7676 33.0167 13.6687C33.0284 13.6718 33.0402 13.6748 33.0525 13.6785C33.0525 13.731 33.0525 13.7835 33.0525 13.836C33.0525 14.1925 33.042 14.549 33.055 14.9042C33.0704 15.3206 33.0995 15.732 33.2695 16.13C33.4142 16.4688 33.6182 16.7361 33.9323 16.9272C34.2296 17.1085 34.4751 17.0743 34.6847 16.8015C35.063 16.3101 35.2052 15.7179 35.2312 15.1338C35.2769 14.107 35.2268 13.076 35.217 12.0468C35.217 12.0273 35.2194 12.0072 35.2151 11.9882C35.0599 11.3796 34.8979 10.7729 34.7502 10.1625C34.7001 9.95552 34.5715 9.83588 34.3873 9.76873C34.3038 9.73821 34.2024 9.7376 34.1122 9.74797C33.829 9.78094 33.5706 9.85236 33.5249 10.1954C33.5168 10.2565 33.4859 10.3145 33.468 10.3743C33.3752 10.6874 33.3153 11.0152 33.1836 11.3113C32.9518 11.832 32.6915 12.3423 32.4151 12.8416C31.8569 13.8506 31.2522 14.8328 30.5209 15.7314C30.3305 15.9652 30.1227 16.1843 29.9002 16.4364C29.8785 16.3503 29.8686 16.3088 29.8575 16.2679C29.7159 15.735 29.6405 15.1924 29.6108 14.643C29.596 14.3713 29.5676 14.1003 29.5614 13.8293C29.5521 13.4246 29.554 13.0199 29.5608 12.6151C29.5614 12.5663 29.6108 12.4986 29.6572 12.4729C29.9342 12.3191 30.2111 12.1634 30.4992 12.0316C30.9561 11.8228 31.3227 11.5127 31.6226 11.119C31.638 11.0982 31.6454 11.0714 31.6553 11.05C30.9122 10.9267 30.2884 11.307 29.6139 11.4859C29.6238 11.354 29.6337 11.2289 29.6417 11.1037C29.6535 10.9346 29.6603 10.7649 29.6757 10.5959C29.7122 10.1966 29.7895 9.79681 29.7827 9.3982C29.7672 8.50026 29.7209 7.60171 29.6652 6.705C29.6498 6.44984 29.5725 6.19529 29.5033 5.94624C29.4538 5.76799 29.3128 5.71611 29.1391 5.7448C28.8974 5.78447 28.7954 5.96211 28.6946 6.14402C28.2983 6.86188 28.0659 7.64078 27.8359 8.41969C27.6795 8.95015 27.554 9.48671 27.5317 10.0453C27.5144 10.4793 27.4501 10.9114 27.4211 11.3448C27.3988 11.6794 27.4044 12.0157 27.384 12.3508C27.3803 12.4131 27.3252 12.4955 27.2696 12.5272C26.966 12.7006 26.6526 12.8569 26.3472 13.0272C26.0715 13.181 25.7988 13.3403 25.5299 13.5058C25.4538 13.5528 25.3562 13.6278 25.4124 13.7267L25.4099 13.7261ZM22.7818 9.2053C22.1148 9.96712 21.7383 10.8455 21.6653 11.846C21.6326 12.2965 21.6703 12.7488 21.8347 13.1749C22.0301 13.681 22.2508 14.1772 22.4696 14.7004C21.737 15.348 20.9748 16.0177 20.0622 16.5133C19.9021 16.144 19.8755 15.7637 19.857 15.3883C19.8391 15.0349 19.8558 14.6784 19.8848 14.325C19.9176 13.927 19.9714 13.5308 20.0344 13.1365C20.0666 12.9362 20.1296 12.7458 20.2576 12.5688C20.4264 12.3368 20.5642 12.0792 20.6867 11.8198C20.8146 11.5487 20.6644 11.3168 20.4066 11.3607C20.2496 11.3876 20.0938 11.434 19.9429 11.4871C19.6548 11.5884 19.3723 11.7062 19.0836 11.8063C18.9538 11.8515 18.8147 11.871 18.644 11.9101C18.7454 11.6696 18.8326 11.4724 18.9123 11.2728C19.1677 10.6319 19.3191 9.97383 19.1955 9.28283C19.1374 8.9593 19.0279 8.66203 18.6811 8.51247C18.4623 8.41847 18.2477 8.41236 18.0221 8.45814C17.7297 8.51735 17.4379 8.58267 17.2134 8.7951C16.5142 9.45558 16.296 10.2772 16.453 11.1922C16.5699 11.8723 16.9284 12.4497 17.3766 12.9924C17.3575 13.0205 17.3389 13.0626 17.3074 13.0913C16.8666 13.4954 16.4314 13.905 15.9807 14.2975C15.6283 14.6045 15.2549 14.8878 14.8932 15.1844C14.5773 15.4439 14.2601 15.699 13.8824 15.8718C13.7643 15.9255 13.7099 15.9163 13.632 15.812C13.3464 15.431 13.1659 15.0019 13.0194 14.5563C13.0058 14.5154 13.0422 14.4373 13.0799 14.4049C13.1727 14.3268 13.2809 14.2676 13.381 14.1974C14.0339 13.7414 14.6379 13.2311 15.0781 12.5639C15.5312 11.8765 15.7804 11.1361 15.5813 10.3016C15.4218 9.63505 15.0385 9.17478 14.3591 8.97334C14.1346 8.90681 13.9164 8.93061 13.6969 8.98494C13.4156 9.05514 13.1244 9.10214 12.858 9.20775C12.3925 9.3921 12.0976 9.77544 11.8472 10.1838C11.2333 11.1837 10.9056 12.2788 10.8123 13.438C10.7715 13.944 10.7882 14.4556 10.9031 14.958C10.9112 14.9928 10.8815 15.0532 10.8506 15.0758C10.701 15.1832 10.539 15.2748 10.3937 15.3871C10.348 15.4225 10.3393 15.5055 10.314 15.5666C10.3789 15.5824 10.4481 15.6209 10.5081 15.6105C10.6602 15.5843 10.8067 15.5318 10.9582 15.4994C10.9922 15.4921 11.0558 15.5128 11.0701 15.5391C11.2432 15.8614 11.433 16.1782 11.5733 16.5146C11.7792 17.0078 12.1786 17.3093 12.5872 17.6109C12.6255 17.639 12.6713 17.6615 12.7164 17.6768C12.9915 17.7678 13.2425 17.6786 13.4682 17.5413C13.7421 17.3746 14.0017 17.1836 14.2589 16.9919C14.6484 16.7001 15.0472 16.4169 15.4113 16.097C15.972 15.6044 16.4493 15.0343 16.9 14.4422C17.1937 14.0564 17.4947 13.6767 17.7884 13.2994C17.9442 13.3635 18.0981 13.427 18.2576 13.4929C18.2422 13.5314 18.231 13.568 18.2131 13.601C17.8725 14.2206 17.776 14.8902 17.8428 15.5782C17.8997 16.1648 18.0919 16.7136 18.3918 17.2349C18.6131 17.6206 18.8561 17.9674 19.227 18.2201C19.3723 18.3196 19.5188 18.38 19.7043 18.3373C20.1142 18.2421 20.4394 18.0052 20.7324 17.7287C21.1058 17.3753 21.4638 17.0047 21.8168 16.6311C22.0412 16.3937 22.2434 16.1367 22.4573 15.8901C22.6001 15.7253 22.746 15.5623 22.8999 15.3883C22.9636 15.4951 23.0199 15.5898 23.0774 15.6838C23.5114 16.3931 23.9546 17.0969 24.3769 17.8123C24.5908 18.1749 24.7249 18.5619 24.728 19.0008C24.7311 19.447 24.2458 19.9415 23.7957 19.8762C23.7333 19.867 23.6709 19.8566 23.6084 19.8469C23.146 19.7773 22.7466 19.5923 22.474 19.2023C22.3355 19.0045 22.2211 18.7902 22.095 18.5839C22.0233 18.4667 21.9108 18.4289 21.7822 18.4435C21.6616 18.4575 21.5577 18.5253 21.5509 18.648C21.538 18.8708 21.5132 19.104 21.5608 19.3176C21.7166 20.0141 22.1012 20.5653 22.7114 20.9609C23.3902 21.401 24.1302 21.5164 24.9135 21.3619C25.3283 21.2802 25.7166 21.1086 25.9497 20.7405C26.1259 20.4622 26.2495 20.1509 26.3892 19.8505C26.6681 19.2505 26.7045 18.6163 26.6093 17.9777C26.5104 17.3136 26.2977 16.6855 25.9342 16.1074C25.4297 15.3059 24.9469 14.4916 24.4492 13.6858C24.3911 13.5918 24.3954 13.5259 24.4573 13.4429C24.9933 12.7244 25.4427 11.9559 25.8056 11.1385C26.1024 10.4701 26.3014 9.7846 26.2038 9.03866C26.1296 8.47035 25.7413 8.16331 25.1676 8.10776C24.8418 8.07601 24.5271 8.15537 24.2161 8.24144C23.6294 8.40381 23.1769 8.75481 22.7825 9.2053H22.7818ZM12.8104 13.8329C12.7826 13.4997 12.7238 13.1999 12.7393 12.9045C12.7727 12.2629 12.8518 11.6287 13.2889 11.0995C13.5356 10.8003 13.7829 10.5067 14.1928 10.4347C14.5699 10.3688 14.9668 10.4921 14.9637 11.0091C14.9606 11.5005 14.7516 11.9034 14.4759 12.2837C14.0734 12.8392 13.5498 13.2738 13.0088 13.6895C12.9557 13.7304 12.9 13.7682 12.8104 13.8323V13.8329ZM18.2508 11.6739C18.2422 11.6952 18.2249 11.7135 18.2001 11.7502C17.8861 11.4877 17.7371 11.1507 17.64 10.7881C17.5405 10.4158 17.5244 10.0489 17.7395 9.70036C17.8972 9.4452 18.1117 9.27184 18.406 9.19737C18.5933 9.14976 18.725 9.22728 18.7875 9.41102C18.9037 9.75286 18.853 10.0953 18.746 10.4194C18.6057 10.8455 18.4184 11.2569 18.2502 11.6739H18.2508ZM23.941 10.0898C24.2409 9.71806 24.5568 9.37073 25.039 9.23949C25.1793 9.20164 25.3351 9.21446 25.4841 9.21202C25.6449 9.20958 25.6746 9.32067 25.6974 9.45131C25.771 9.87006 25.6764 10.2656 25.5317 10.6508C25.264 11.365 24.8579 12.0041 24.4035 12.6151C24.3113 12.7391 24.2137 12.8593 24.0925 13.015C23.9287 12.5047 23.7648 12.0224 23.6196 11.5347C23.46 10.9993 23.5905 10.5232 23.941 10.0892V10.0898ZM51.9933 15.3596C51.7874 15.5446 51.5772 15.6972 51.4152 15.8895C51.2131 16.1294 51.0579 16.4071 50.8706 16.6592C50.5948 17.0304 50.3179 17.3984 49.9228 17.6652C49.6947 17.8196 49.5327 17.7372 49.4387 17.584C49.2972 17.3514 49.1624 17.1085 49.0721 16.8533C48.9015 16.3705 48.8384 15.8638 48.7976 15.3541C48.7562 14.834 48.6827 14.3158 48.6567 13.7957C48.6264 13.192 48.6307 12.5871 48.6245 11.9821C48.6239 11.918 48.6431 11.8485 48.6721 11.7905C48.8774 11.3778 49.0888 10.9682 49.2947 10.5562C49.8066 9.53432 50.282 8.4966 50.6276 7.40638C50.8693 6.64457 51.0492 5.87176 50.9349 5.06356C50.9021 4.83282 50.8359 4.6094 50.6696 4.43482C50.4285 4.18088 50.1349 4.11496 49.7874 4.17783C49.3454 4.2578 48.9442 4.41224 48.6085 4.71134C48.2066 5.06905 47.8944 5.49635 47.6471 5.96821C46.8953 7.40271 46.606 8.95686 46.4613 10.5446C46.428 10.9121 46.4335 11.2838 46.4292 11.6537C46.4243 12.117 46.4292 12.581 46.4261 13.0443C46.4261 13.0943 46.4199 13.159 46.389 13.1914C46.083 13.5125 45.7708 13.8287 45.4604 14.1461C45.4456 14.1382 45.4308 14.1296 45.4159 14.1217C45.377 13.7017 45.3343 13.2817 45.3003 12.8605C45.257 12.3258 45.2267 11.7892 45.1785 11.2551C45.139 10.8138 45.0833 10.3743 45.0308 9.93415C45.011 9.76934 44.7946 9.63321 44.6283 9.66434C44.5658 9.67594 44.4978 9.6619 44.4329 9.65519C44.3006 9.64115 44.164 9.59354 44.0385 9.61429C43.5303 9.6967 43.0673 9.9134 42.598 10.1112C42.0923 10.3242 41.5804 10.5226 41.0679 10.7186C40.8886 10.7869 40.815 10.7485 40.726 10.5788C40.6222 10.381 40.5282 10.1844 40.6339 9.95064C40.6698 9.87067 40.6698 9.77056 40.6673 9.68022C40.666 9.63566 40.6333 9.57705 40.5962 9.55142C40.4843 9.4745 40.3643 9.44276 40.2197 9.48C40.0262 9.52944 39.8586 9.57644 39.7832 9.79681C39.5137 10.5818 39.228 11.3619 38.9517 12.1445C38.8521 12.4265 38.7613 12.7122 38.6531 13.0339C38.616 12.9112 38.5882 12.827 38.5653 12.7421C38.2655 11.6318 37.991 10.5159 37.8821 9.36829C37.8339 8.86163 37.7981 8.35437 37.7653 7.84649C37.7387 7.43568 37.7498 7.02059 37.6961 6.61404C37.6546 6.29845 37.5613 5.98469 37.4519 5.68436C37.3338 5.36023 37.1267 5.2534 36.7848 5.29857C36.5183 5.33398 36.2698 5.40845 36.1387 5.6807C36.0979 5.76555 36.0386 5.84918 35.9675 5.91022C35.5675 6.2545 35.1737 6.60733 34.7533 6.92597C34.4497 7.1561 34.1128 7.34472 33.782 7.53579C33.6225 7.62796 33.5669 7.59195 33.4859 7.42774C33.3845 7.22142 33.3604 7.0035 33.374 6.77947C33.3864 6.57925 33.4964 6.43702 33.6609 6.31371C33.6788 6.41993 33.6831 6.51332 33.7116 6.59939C33.7357 6.67448 33.7283 6.78374 33.8562 6.78863C33.9737 6.79351 34.0794 6.78618 34.1437 6.6641C34.3273 6.31616 34.4627 5.96272 34.48 5.55678C34.4967 5.15757 34.1394 4.92011 33.8272 4.92866C33.5181 4.9372 33.2096 5.04219 32.9054 5.12216C32.697 5.1771 32.553 5.33459 32.4293 5.49879C32.0813 5.96028 31.9904 6.48646 32.1042 7.03646C32.2253 7.61942 32.4584 8.14743 32.9555 8.5375C33.1681 8.70414 33.3808 8.71147 33.617 8.6724C33.9669 8.61441 34.2698 8.44715 34.5493 8.24388C34.8942 7.993 35.225 7.7238 35.5619 7.46193C35.5625 7.46559 35.5681 7.47841 35.5687 7.49123C35.599 8.09738 35.6176 8.70414 35.6621 9.30847C35.693 9.726 35.7375 10.1448 35.8135 10.5562C35.9335 11.2112 36.0676 11.8649 36.2265 12.512C36.4392 13.3782 36.6395 14.2535 37.0859 15.041C37.3653 15.5342 37.5378 16.1001 38.0571 16.4413C38.2593 16.5744 38.446 16.5854 38.5573 16.3687C38.684 16.122 38.8033 15.8675 38.8868 15.6044C39.0883 14.9677 39.2596 14.3213 39.458 13.6828C39.7109 12.8697 39.978 12.0609 40.2469 11.2258C40.6308 11.8485 41.186 11.752 41.7609 11.5823C41.6132 11.7862 41.4673 11.9687 41.3436 12.164C41.2194 12.36 41.0945 12.5608 41.011 12.7745C40.8973 13.0644 40.794 13.3641 40.7378 13.6687C40.6562 14.1107 40.8435 14.4989 41.1112 14.8359C41.2966 15.0691 41.5507 15.2302 41.8765 15.1838C42.1906 15.1393 42.4731 15.0056 42.7241 14.8163C42.9028 14.6821 43.0697 14.5331 43.2422 14.3903C43.2911 14.5685 43.3158 14.7632 43.3962 14.9317C43.5822 15.3236 43.7875 15.7076 44.0026 16.0848C44.0669 16.1971 44.1869 16.2808 44.2876 16.3705C44.3705 16.4444 44.4564 16.5213 44.5535 16.5725C44.6524 16.6244 44.7798 16.694 44.8731 16.6714C45.0481 16.6293 45.2236 16.5475 45.3714 16.4431C45.7467 16.1776 46.0119 15.8046 46.3006 15.4567C46.3853 15.3547 46.4657 15.2497 46.5528 15.1399C46.5918 15.3492 46.6357 15.5366 46.661 15.7259C46.7822 16.6232 47.1915 17.4064 47.649 18.1712C47.8987 18.5888 48.2796 18.8702 48.6734 19.1327C48.9089 19.2902 49.1884 19.3243 49.4666 19.281C50.1071 19.1821 50.5676 18.8183 50.9052 18.2878C51.252 17.7427 51.4839 17.1445 51.7349 16.5542C51.8919 16.1843 52.0539 15.8162 51.9914 15.359L51.9933 15.3596ZM48.6827 9.11191C48.6987 8.24205 48.7785 7.37891 48.9788 6.52981C49.1092 5.97737 49.3454 5.47865 49.7887 5.10324C49.9166 4.99458 50.0848 4.92377 50.2449 4.86273C50.371 4.81451 50.5318 4.92072 50.5812 5.05501C50.6814 5.32726 50.6715 5.61294 50.6233 5.88642C50.4224 7.02608 49.8771 8.02962 49.3089 9.02096C49.1265 9.33899 48.9293 9.64909 48.7377 9.96223C48.7191 9.99337 48.6944 10.0208 48.6814 10.0385C48.6814 9.7321 48.6765 9.42201 48.682 9.11191H48.6827ZM43.5087 11.7129C43.4388 12.0413 43.3962 12.3759 43.3065 12.6988C43.2632 12.8544 43.1458 12.9924 43.0493 13.1297C42.7309 13.5827 42.3476 13.9697 41.8456 14.2273C41.667 14.3188 41.615 14.3042 41.5044 14.1455C41.351 13.9251 41.3807 13.695 41.4599 13.4575C41.5891 13.0675 41.8092 12.7269 42.0762 12.4223C42.4076 12.045 42.7619 11.6873 43.1186 11.3326C43.2904 11.1617 43.4895 11.0183 43.6762 10.8626C43.6861 10.8681 43.6954 10.873 43.7053 10.8785C43.6391 11.1568 43.568 11.434 43.5087 11.7129Z" fill="white"/>
</svg>