<svg viewBox="0 0 273.8 406">
<g>
	<rect x="132.7" y="202.9" style="fill:#1E3F59;" width="53.7" height="24.8"/>
	<path style="fill:#254D6D;" d="M178.3,202.9v-27.3c0-13,10.5-23.5,23.5-23.5h14.8c16.3,0,30.9-10.2,36.4-25.6l17.8-49.6l-26.7-8.5
		l-24.2,43.2c-2.7,4.9-7.9,7.9-13.5,7.9h-77.2c-8.5,0-16.7,2.8-23.5,8l-28.4,21.7L47.6,97.9L38,122.5l21.7,64.7l38.5-10.4
		c7.9-2.1,16.4,0,22.2,5.8l21,20.4H178.3z"/>
	
		<polyline style="fill:none;stroke:#FFFFFF;stroke-width:6;stroke-linecap:round;stroke-linejoin:round;stroke-miterlimit:10;" points="
		110.8,181.6 77.4,149.2 -5.5,3.2 	"/>
	<path style="fill:#E8C03F;" d="M132.7,260.8h-24.2c-5.4,0-10.4,2.8-13.2,7.4L60.4,325l-36.5-29l38.7-63.9l29.4-7.1L132.7,260.8z"/>
	
		<line style="fill:none;stroke:#FFFFFF;stroke-width:6;stroke-linecap:round;stroke-linejoin:round;stroke-miterlimit:10;" x1="92.1" y1="225.1" x2="92.1" y2="398.3"/>
	<path style="fill:#DB3825;" d="M243.1,32.2c0-9,7.7-16.1,16.8-15.2c8,0.8,13.8,7.9,13.8,15.9l0,22.3c0,2.4-0.7,4.7-2.1,6.6
		l-8.8,12.6l-15.1-4.8l-4.7-9.2l-9.6-7.5c-1.8-1.4-2.3-3.9-1.3-5.9v0c1-1.8,3-2.8,5-2.4l5.4,1L243.1,32.2z"/>
	
		<line style="fill:none;stroke:#FFFFFF;stroke-width:6;stroke-linecap:round;stroke-linejoin:round;stroke-miterlimit:10;" x1="59.7" y1="187.1" x2="-5.5" y2="6.1"/>
	<path style="fill:#1E3F59;" d="M60.4,325l-9.3,15.9L-0.4,309v-11.2l13.5,4.2c2.7,0.8,5.6,0,7.4-2.1l3.5-3.9l33.8,26.9L60.4,325z"/>
	<circle style="fill:#DB3825;" cx="34.7" cy="110.3" r="16"/>
	<circle style="fill:#DB3825;" cx="47" cy="95.9" r="6.2"/>
	<path style="fill:#FCD65A;" d="M158.2,219.3L119.9,182c-5.6-5.4-13.6-7.5-21.1-5.5l-72.9,19.7V241l66.2-16l52.3,46L158.2,219.3z"/>
	<path style="fill:#1E3F59;" d="M-0.4,180.1V241h26.3v-44.7h-4.2c-2,0-3.7-1.4-4.2-3.3l-3.1-13L-0.4,180.1z"/>
	<circle style="fill:#FCD65A;" cx="166.3" cy="249.2" r="30.9"/>
	<circle style="fill:#F59591;" cx="147.2" cy="89.2" r="27.2"/>
	<path style="fill:#FBFFFF;" d="M147.2,146.6L147.2,146.6c-10.7,0-19.4-8.7-19.4-19.4v-7.8h38.8v7.8
		C166.6,137.9,157.9,146.6,147.2,146.6z"/>
	<g>
		<polygon style="fill:#254D6D;" points="173,72.4 122.4,72.4 147.7,26.6 		"/>
		<polygon style="fill:#254D6D;" points="126,26.6 128.1,48.4 103.1,37.5 		"/>
		<polygon style="fill:#1E3F59;" points="125.9,26.6 147.7,26.6 128.5,61.2 		"/>
		<rect x="121.4" y="71.2" style="fill:#DB3825;" width="51.6" height="8"/>
		<circle style="fill:#FBFFFF;" cx="104.4" cy="38.1" r="5.8"/>
	</g>
	<path style="fill:#F59591;" d="M147.2,130.6L147.2,130.6c-4.4,0-8-3.6-8-8v-18h16v18C155.2,127,151.6,130.6,147.2,130.6z"/>
	<path style="fill:#F59591;" d="M173.2,92h-3V79.2h10.1v5.7C180.2,88.8,177.1,92,173.2,92z"/>
	<path style="fill:#F59591;" d="M180.2,72L180.2,72l0,7.2H173l0,0C173,75.2,176.2,72,180.2,72z"/>
	<path style="fill:#F59591;" d="M121.3,92h3V79.2h-10.1v5.7C114.2,88.8,117.4,92,121.3,92z"/>
	<path style="fill:#F59591;" d="M114.2,72L114.2,72l0,7.2h7.2l0,0C121.5,75.2,118.2,72,114.2,72z"/>
	<path style="fill:#FBFFFF;" d="M244,66.8l27.6,8.7c1.5,0.5,2.3,2.1,1.7,3.5l-3.7,10.4c-0.5,1.4-2.1,2.2-3.5,1.6l-28.5-10.8
		c-1.5-0.6-2.2-2.4-1.4-3.9l4.6-8.3C241.5,66.9,242.8,66.4,244,66.8z"/>
	<path style="fill:#1E3F59;" d="M7.9,181.6h-8.2v-8.2c0-7.9,6.4-14.3,14.3-14.3h8.2v8.2c0,5.5-3.1,10.3-7.7,12.7
		C12.5,181,10.2,181.6,7.9,181.6z"/>
</g>
</svg>