<svg width="61" height="57" viewBox="0 0 61 57" fill="none" xmlns="http://www.w3.org/2000/svg">
<path d="M26.6367 20.9742C28.4419 18.8725 30.3301 16.7071 32.8595 15.5502C34.6458 14.7355 36.636 14.4807 38.5967 14.3428C41.2816 14.1543 43.9826 14.165 46.6675 14.3746C48.1186 14.4887 49.7575 14.7726 50.5541 15.98C50.9189 16.5347 51.0449 17.206 51.1629 17.8562L52.5497 25.5331C52.6328 25.9895 52.7133 26.4672 52.5684 26.9077C52.3941 27.4411 51.9274 27.8179 51.4714 28.1496C46.0748 32.077 39.0205 33.6957 32.4276 32.5122C31.0114 32.2574 29.4343 31.7293 28.8844 30.4158L26.6367 20.9742Z" fill="#ECBEA0"/>
<path d="M33.3105 20.6478C34.1689 17.9119 35.8855 16.402 39.2248 17.8164C36.8403 18.2888 35.6012 18.1003 33.3105 20.6478V20.6478Z" fill="white"/>
<path d="M43.79 17.9598C45.4557 16.2376 47.3011 15.744 49.2564 18.0261C47.3038 17.5007 46.4508 16.9063 43.79 17.9598Z" fill="white"/>
<path d="M50.9756 11.7026C50.9756 11.7026 50.2273 -0.145833 34.2064 0.000116669C18.1855 0.146066 17.5149 19.1089 2.16992 24.663C4.71535 24.663 11.901 23.9226 16.316 21.9218C20.806 19.9952 22.9786 22.5135 22.9786 22.5135C22.9786 22.5135 29.8639 13.4779 38.3987 13.1834C46.9335 12.8888 50.9729 11.7026 50.9729 11.7026H50.9756Z" fill="#D8292D"/>
<path d="M48.9559 20.8018C49.5057 19.9102 50.4472 19.2627 51.4852 19.0636C52.2389 18.9203 53.175 19.1035 53.4754 19.804C53.8 20.5603 53.1884 21.4227 53.3306 22.2321C53.395 22.5956 53.6069 22.9194 53.7168 23.2723C53.977 24.0949 53.6471 25.021 53.0489 25.65C52.4991 26.2285 51.7025 26.6 50.9032 26.5389C50.1039 26.4779 49.3341 25.9339 49.1168 25.1697C48.229 23.1847 48.3926 22.4046 48.9559 20.8018V20.8018Z" fill="#ECBEA0"/>
<path d="M50.0771 23.6996C50.0771 23.6996 51.4826 19.0744 50.5546 15.9802C51.2734 15.9245 53.0705 25.5492 53.0705 25.5492L50.0771 23.697V23.6996Z" fill="white"/>
<path d="M59.9446 38.0795C59.6925 36.5006 59.3545 34.9323 58.9361 33.3879C58.5954 32.1327 56.9244 27.6614 54.2771 26.1063C53.0593 25.4005 52.1554 24.2063 50.8572 23.657C49.5805 23.1157 48.1241 23.2776 46.7454 23.4501C43.8298 23.8136 40.8043 24.217 38.3259 25.7799C36.8453 26.714 35.3969 28.0966 33.6481 27.9135C32.4116 27.7861 31.4031 26.8706 30.6762 25.8728C29.4719 24.2196 28.7987 22.2028 28.7343 20.1702C27.3529 21.7889 26.3793 23.8481 24.7887 25.1723C24.8209 25.9339 24.5178 26.7193 24.1155 27.3907C23.5898 28.269 22.8951 29.0519 22.4901 29.9886C22.1012 30.8829 21.9939 31.87 21.8919 32.8386C21.7659 34.038 21.6398 35.2375 21.5137 36.4369C21.377 37.7239 21.2509 39.0693 21.7203 40.2767C22.2058 41.5213 23.2813 42.4925 23.6461 43.7742C23.8634 44.5358 23.8097 45.3584 24.0619 46.1121C24.373 47.0488 25.1347 47.7971 26.0279 48.235C26.508 48.4711 27.0203 48.6251 27.5487 48.7179C28.6002 50.4163 30.2095 51.8386 32.1622 52.2924C33.1868 52.5312 34.257 52.4967 35.3084 52.4197C37.0948 52.2924 38.8731 52.0562 40.6273 51.7112C41.2227 51.5945 41.8182 51.4644 42.4243 51.4512C43.3846 51.4299 44.3234 51.7006 45.2648 51.8811C46.9144 52.1968 48.6176 52.242 50.2806 52.0111C51.3749 51.8598 52.4746 51.5812 53.4107 50.9974C54.2288 50.4879 54.8913 49.7635 55.4519 48.9833C56.5731 47.4203 57.3214 45.5946 57.6138 43.6999C58.751 43.554 59.6281 42.5482 59.9446 41.4549C60.2611 40.3643 60.127 39.1967 59.9446 38.0769V38.0795Z" fill="white"/>
<path d="M39.9707 27.6243C44.163 29.5508 48.5028 29.5508 51.4989 28.8104C50.1524 32.5123 41.8724 36.8536 39.9707 27.6243Z" fill="#D8292D"/>
<path d="M50.0659 25.0292C50.5085 24.8063 50.9645 24.5356 51.171 24.0898C51.5063 23.3601 50.9725 22.4711 50.2456 22.1208C49.5188 21.7705 48.6658 21.813 47.8585 21.8608C46.4691 21.9457 44.959 22.0784 43.9344 23.0124C42.9098 23.9465 44.1677 27.3989 50.0659 25.0265V25.0292Z" fill="#D38361"/>
<path d="M15.9917 19.4194C12.0193 20.571 8.57803 23.092 4.64053 24.3551C4.48497 24.4055 4.3133 24.4745 4.17383 24.5701C7.45687 24.318 12.7784 23.5245 16.3189 21.9217C20.809 19.9952 22.9816 22.5135 22.9816 22.5135C22.9816 22.5135 24.1322 21.0062 26.0742 19.2018C24.5185 19.0425 22.9655 18.7851 21.399 18.7374C19.5751 18.6817 17.7432 18.9125 15.9917 19.422V19.4194Z" fill="#D8292D"/>
<path d="M51.7534 16.1394C49.5379 16.0412 46.5633 15.0541 43.8972 15.1814C41.1908 15.3115 38.463 15.4442 35.8371 16.1049C33.2112 16.7657 30.6604 17.9969 28.8714 20.0084C27.1118 21.9854 26.0524 24.7159 23.6813 25.9101C23.5284 25.987 23.3648 26.056 23.1958 26.0428C22.949 26.0189 22.7586 25.8225 22.595 25.6394C22.0934 25.0795 21.5757 24.493 21.3638 23.7713C20.9132 22.2348 21.97 20.7037 22.9651 19.4432C24.2499 17.8192 25.5561 16.1712 27.2379 14.9506C28.4368 14.0802 29.794 13.4513 31.1781 12.9152C35.5769 11.2143 40.3352 10.4208 45.0532 10.6039C47.7757 10.7101 51.9492 11.1002 52.9523 12.4031C53.9555 13.706 53.9689 16.2349 51.7534 16.1368V16.1394Z" fill="white"/>
<path d="M3.44397 27.773C5.34602 27.773 6.88794 26.2475 6.88794 24.3658C6.88794 22.484 5.34602 20.9585 3.44397 20.9585C1.54192 20.9585 0 22.484 0 24.3658C0 26.2475 1.54192 27.773 3.44397 27.773Z" fill="white"/>
<path d="M25.2852 25.3129C24.333 24.5646 23.0536 24.2356 21.852 24.4293C20.9803 24.5699 20.0415 25.1378 19.9986 26.0108C19.953 26.9555 20.9561 27.6455 21.1305 28.5769C21.2083 28.9962 21.109 29.4261 21.1305 29.8533C21.1814 30.8458 21.9083 31.7161 22.8069 32.162C23.633 32.5706 24.6442 32.6582 25.4837 32.2787C26.3233 31.8992 26.9348 31.0076 26.8651 30.0974C27.0287 27.603 26.5378 26.8255 25.2852 25.3156V25.3129Z" fill="#ECBEA0"/>
<path d="M46.0054 30.7104C44.2459 30.4053 42.5963 30.668 41.502 31.3208C43.5029 33.9319 46.6572 33.3773 48.9237 31.8303C48.1351 31.3101 47.1319 30.9068 46.0054 30.7104V30.7104Z" fill="#DE534E"/>
<path d="M30.9882 53.2479C34.8471 53.2479 37.9753 50.0651 37.9753 46.1389C37.9753 42.2126 34.8471 39.0298 30.9882 39.0298C27.1292 39.0298 24.001 42.2126 24.001 46.1389C24.001 50.0651 27.1292 53.2479 30.9882 53.2479Z" fill="white"/>
<path d="M37.2772 56.9975C41.1361 56.9975 44.2644 53.8146 44.2644 49.8884C44.2644 45.9621 41.1361 42.7793 37.2772 42.7793C33.4183 42.7793 30.29 45.9621 30.29 49.8884C30.29 53.8146 33.4183 56.9975 37.2772 56.9975Z" fill="white"/>
<path d="M46.089 54.7179C51.1212 54.7179 55.2005 50.5668 55.2005 45.4461C55.2005 40.3254 51.1212 36.1743 46.089 36.1743C41.0569 36.1743 36.9775 40.3254 36.9775 45.4461C36.9775 50.5668 41.0569 54.7179 46.089 54.7179Z" fill="white"/>
<path d="M38.9539 22.7019C39.8264 22.7019 40.5337 22.0021 40.5337 21.1389C40.5337 20.2757 39.8264 19.5759 38.9539 19.5759C38.0813 19.5759 37.374 20.2757 37.374 21.1389C37.374 22.0021 38.0813 22.7019 38.9539 22.7019Z" fill="black"/>
<path d="M46.7377 21.2265C47.431 21.2265 47.993 20.6705 47.993 19.9846C47.993 19.2987 47.431 18.7427 46.7377 18.7427C46.0444 18.7427 45.4824 19.2987 45.4824 19.9846C45.4824 20.6705 46.0444 21.2265 46.7377 21.2265Z" fill="black"/>
</svg>
